<svg xmlns="http://www.w3.org/2000/svg" width="512" height="512" viewBox="211 4 258 258" fill="none">
  <defs>
    <mask id="faviconShieldMask" maskUnits="userSpaceOnUse">
      <rect x="0" y="0" width="680" height="340" fill="white"/>
      <rect x="304.95880126953125" y="126.16667175292969" width="70.08246231079102" height="43.666664123535156" fill="black" rx="2"/>
      <rect x="248.9705047607422" y="264.4444580078125" width="93.96271514892578" height="53.11111068725586" fill="black" rx="2"/>
      <rect x="338.0000305175781" y="264.4444580078125" width="114.44189453125" height="53.11111068725586" fill="black" rx="2"/>
      <rect x="238.3164520263672" y="309.8611145019531" width="203.3671875" height="16.277777671813965" fill="black" rx="2"/>
      <rect x="399.0794372558594" y="93.80555725097656" width="25.841144561767578" height="14.388888359069824" fill="black" rx="2"/>
    </mask>
  </defs>
  <!-- Fundo arredondado (área útil do favicon em abas) -->
  <rect x="211" y="4" width="258" height="258" rx="52" fill="#0f1117"/>
  <g>
    <path d="M340,48 L420,78 L420,168 Q420,220 340,252 Q260,220 260,168 L260,78 Z" fill="#1a1a2e" stroke="#7F77DD" stroke-width="2.5"/>
    <path d="M340,62 L408,88 L408,164 Q408,208 340,238 Q272,208 272,164 L272,88 Z" fill="none" stroke="#AFA9EC" stroke-width="1" opacity="0.4" mask="url(#faviconShieldMask)"/>
    <text x="340" y="148" text-anchor="middle" dominant-baseline="central" font-size="34" fill="#AFA9EC" letter-spacing="2" font-family="Space Mono, ui-monospace, monospace" font-weight="700">SQL</text>
    <line x1="340" y1="20" x2="340" y2="100" stroke="#EF9F27" stroke-width="3" stroke-linecap="round"/>
    <polygon points="340,14 336,26 344,26" fill="#EF9F27"/>
    <rect x="316" y="100" width="48" height="7" rx="3" fill="#BA7517"/>
    <rect x="336" y="107" width="8" height="21" rx="2" fill="#633806"/>
    <circle cx="340" cy="130" r="5" fill="#BA7517"/>
  </g>
</svg>
